HIERARCHY
ROOT Hips
{
	OFFSET 0.000000 0.000000 0.000000
	CHANNELS 6 Xposition Yposition Zposition Zrotation Yrotation Xrotation
	JOINT LHipJoint
	{
		OFFSET 0.000000 0.000000 0.000000
		CHANNELS 3 Zrotation Yrotation Xrotation
		JOINT LeftUpLeg
		{
			OFFSET 0.076937 -0.101296 0.047373
			CHANNELS 3 Zrotation Yrotation Xrotation
			JOINT LeftLeg
			{
				OFFSET 0.138181 -0.379650 0.000000
				CHANNELS 3 Zrotation Yrotation Xrotation
				JOINT LeftFoot
				{
					OFFSET 0.144621 -0.397343 0.000000
					CHANNELS 3 Zrotation Yrotation Xrotation
					JOINT LeftToeBase
					{
						OFFSET 0.008898 -0.024446 0.131094
						CHANNELS 3 Zrotation Yrotation Xrotation
						End Site
						{
							OFFSET 0.000000 0.000000 0.000000
						}
					}
				}
			}
		}
	}
	JOINT RHipJoint
	{
		OFFSET 0.000000 0.000000 0.000000
		CHANNELS 3 Zrotation Yrotation Xrotation
		JOINT RightUpLeg
		{
			OFFSET -0.073689 -0.101296 0.047373
			CHANNELS 3 Zrotation Yrotation Xrotation
			JOINT RightLeg
			{
				OFFSET -0.143511 -0.394292 0.000000
				CHANNELS 3 Zrotation Yrotation Xrotation
				JOINT RightFoot
				{
					OFFSET -0.144963 -0.398282 0.000000
					CHANNELS 3 Zrotation Yrotation Xrotation
					JOINT RightToeBase
					{
						OFFSET -0.009298 -0.025546 0.133386
						CHANNELS 3 Zrotation Yrotation Xrotation
						End Site
						{
							OFFSET 0.000000 0.000000 0.000000
						}
					}
				}
			}
		}
	}
	JOINT LowerBack
	{
		OFFSET 0.000000 0.000000 0.000000
		CHANNELS 3 Zrotation Yrotation Xrotation
		JOINT Spine
		{
			OFFSET 0.001596 0.114897 -0.010915
			CHANNELS 3 Zrotation Yrotation Xrotation
			JOINT Spine1
			{
				OFFSET 0.003201 0.115645 -0.002413
				CHANNELS 3 Zrotation Yrotation Xrotation
				JOINT Neck
				{
					OFFSET 0.000000 0.000000 0.000000
					CHANNELS 3 Zrotation Yrotation Xrotation
					JOINT Neck1
					{
						OFFSET -0.003058 0.098565 0.009709
						CHANNELS 3 Zrotation Yrotation Xrotation
						JOINT Head
						{
							OFFSET 0.005874 0.099418 -0.006997
							CHANNELS 3 Zrotation Yrotation Xrotation
							End Site
							{
								OFFSET 0.000000 0.000000 0.000000
							}
						}
					}
				}
				JOINT LeftShoulder
				{
					OFFSET 0.000000 0.000000 0.000000
					CHANNELS 3 Zrotation Yrotation Xrotation
					JOINT LeftArm
					{
						OFFSET 0.189788 0.067783 -0.017566
						CHANNELS 3 Zrotation Yrotation Xrotation
						JOINT LeftForeArm
						{
							OFFSET 0.281260 -0.000000 -0.000000
							CHANNELS 3 Zrotation Yrotation Xrotation
							JOINT LeftHand
							{
								OFFSET 0.196626 -0.000000 -0.000000
								CHANNELS 3 Zrotation Yrotation Xrotation
								JOINT LeftFingerBase
								{
									OFFSET 0.000000 0.000000 0.000000
									CHANNELS 3 Zrotation Yrotation Xrotation
									JOINT LeftHandIndex1
									{
										OFFSET 0.040372 -0.000000 -0.000000
										CHANNELS 3 Zrotation Yrotation Xrotation
										End Site
										{
											OFFSET 0.000000 0.000000 0.000000
										}
									}
								}
								JOINT LThumb
								{
									OFFSET 0.000000 0.000000 0.000000
									CHANNELS 3 Zrotation Yrotation Xrotation
									End Site
									{
										OFFSET 0.000000 0.000000 0.000000
									}
								}
							}
						}
					}
				}
				JOINT RightShoulder
				{
					OFFSET 0.000000 0.000000 0.000000
					CHANNELS 3 Zrotation Yrotation Xrotation
					JOINT RightArm
					{
						OFFSET -0.177042 0.077557 -0.022840
						CHANNELS 3 Zrotation Yrotation Xrotation
						JOINT RightForeArm
						{
							OFFSET -0.295874 -0.000000 -0.000000
							CHANNELS 3 Zrotation Yrotation Xrotation
							JOINT RightHand
							{
								OFFSET -0.194403 -0.000000 -0.000000
								CHANNELS 3 Zrotation Yrotation Xrotation
								JOINT RightFingerBase
								{
									OFFSET 0.000000 0.000000 0.000000
									CHANNELS 3 Zrotation Yrotation Xrotation
									JOINT RightHandIndex1
									{
										OFFSET -0.035138 -0.000000 -0.000000
										CHANNELS 3 Zrotation Yrotation Xrotation
										End Site
										{
											OFFSET 0.000000 0.000000 0.000000
										}
									}
								}
								JOINT RThumb
								{
									OFFSET 0.000000 0.000000 0.000000
									CHANNELS 3 Zrotation Yrotation Xrotation
									End Site
									{
										OFFSET 0.000000 0.000000 0.000000
									}
								}
							}
						}
					}
				}
			}
		}
	}
}
MOTION
Frames: 6
Frame Time: 0.033333
-42.530141 0.983170 -21.885090 0.385553 35.097847 4.237482 0.516779 20.540007 2.881106 -15.362256 -5.371631 -15.790088 -0.674017 -0.408318 21.667408 22.199530 -11.293328 -1.150434 -6.051229 1.418955 -8.076394 -2.213301 -22.617951 0.738619 29.277289 11.229278 -9.349648 -6.535850 1.345594 23.522531 -32.967853 9.800964 -8.664646 3.147973 -0.884058 -8.080414 6.085614 0.216985 11.748965 -2.145781 -0.450189 17.387249 -2.932813 1.468171 -32.934486 -2.509400 0.237372 -11.422751 7.763722 -0.428655 15.019199 -1.366940 -2.809807 -6.740096 -1.025290 27.892685 2.825856 -72.076938 -8.582636 56.408890 0.190023 -32.961779 17.455096 6.008352 -11.403966 9.233237 -5.437297 16.008633 0.166271 -0.000795 -0.012068 0.013930 0.002655 -0.005195 -0.004476 1.357338 -28.344796 -1.345665 76.750843 5.892996 52.195397 -2.076490 33.471039 14.684850 -6.984519 12.302052 8.232638 3.565180 -16.091438 -0.262111 -0.025984 -0.045918 0.030241 -0.003833 -0.001164 0.009147 
-42.530198 0.982907 -21.885123 0.342171 35.103494 4.205172 0.570999 20.817799 2.767657 -15.400575 -4.905348 -15.647609 -0.833836 -0.097027 21.745684 22.153668 -10.922530 -1.556265 -6.022788 1.523370 -8.082044 -2.106943 -22.810301 0.642446 29.216423 11.025029 -9.610855 -6.328231 1.168658 23.636578 -32.574114 9.571027 -8.689298 3.242497 -0.913187 -8.073956 6.058031 0.142852 11.730390 -2.171368 -0.510624 17.354350 -2.910909 1.420348 -32.830168 -2.476482 0.104887 -11.391664 7.790675 -0.596316 14.883597 -1.396531 -2.953678 -6.809374 -1.006904 27.866555 2.782175 -71.907606 -8.738475 56.340489 0.221994 -33.038129 17.345203 6.040505 -11.379205 9.230235 -5.468405 16.035902 0.151070 -0.000782 -0.012257 0.013588 0.002681 -0.004862 -0.004665 1.294310 -28.260013 -1.309256 76.833539 5.803298 52.266048 -1.985157 33.743142 14.657914 -6.901164 12.316664 8.121238 3.579203 -16.078296 -0.255715 -0.025481 -0.045832 0.030401 -0.003563 -0.000924 0.009028 
-42.530327 0.982455 -21.885142 0.329653 35.069505 4.189204 0.576555 21.050438 2.704919 -15.363140 -4.450767 -15.504771 -0.983276 0.207000 21.823593 22.082148 -10.606107 -1.924183 -6.009067 1.630972 -8.106133 -2.002027 -22.999840 0.484758 29.196723 10.826510 -9.849110 -6.183205 0.973258 23.691144 -32.395074 9.403825 -8.723283 3.302138 -0.926243 -8.055205 5.954318 0.077898 11.721473 -2.221876 -0.567896 17.309072 -2.826618 1.383548 -32.732493 -2.419466 -0.112398 -11.362484 7.801936 -0.838326 14.731784 -1.434632 -3.123280 -6.881279 -0.965637 27.880453 2.713130 -71.792576 -8.865974 56.265922 0.229423 -33.172544 17.223746 6.082493 -11.360272 9.222810 -5.487648 16.051924 0.139089 -0.000706 -0.012421 0.013290 0.002676 -0.004630 -0.004826 1.243071 -28.106049 -1.258906 76.916263 5.714563 52.343190 -1.889361 34.041753 14.624435 -6.852131 12.375364 8.033184 3.585998 -16.058308 -0.249889 -0.025105 -0.045831 0.030485 -0.003394 -0.000746 0.008887 
-42.530413 0.982134 -21.885167 0.325328 35.038977 4.184503 0.560598 21.114324 2.711916 -15.278348 -4.226766 -15.418171 -1.056579 0.334178 21.834981 22.034819 -10.519856 -2.065526 -6.015362 1.679662 -8.126495 -1.959695 -23.079074 0.397198 29.247250 10.792182 -9.959840 -6.133659 0.947693 23.634446 -32.384905 9.362661 -8.775413 3.301940 -0.906749 -8.021532 5.881313 0.075187 11.708664 -2.240135 -0.573323 17.295000 -2.779638 1.365836 -32.711541 -2.407225 -0.130576 -11.358192 7.829942 -0.871412 14.671845 -1.437505 -3.174420 -6.907374 -0.925539 27.855219 2.689919 -71.779301 -8.912675 56.249665 0.219689 -33.257574 17.172215 6.106637 -11.355587 9.219118 -5.492262 16.049507 0.135247 -0.000670 -0.012470 0.013190 0.002621 -0.004548 -0.004882 1.225962 -28.080477 -1.257264 76.942444 5.659697 52.384754 -1.837951 34.191670 14.618556 -6.848542 12.413656 8.012603 3.587440 -16.045655 -0.249184 -0.024979 -0.045872 0.030433 -0.003374 -0.000666 0.008804 
-42.530463 0.981903 -21.885194 0.324145 35.014260 4.182233 0.545423 21.133618 2.731058 -15.204969 -4.096696 -15.362141 -1.098374 0.396229 21.829900 22.006042 -10.501194 -2.133839 -6.023508 1.703971 -8.140676 -1.941968 -23.117866 0.347381 29.302288 10.805413 -10.019696 -6.113906 0.969240 23.561296 -32.412241 9.358811 -8.820114 3.287516 -0.883003 -7.991948 5.836741 0.083935 11.696930 -2.246601 -0.568759 17.294111 -2.754360 1.354881 -32.711100 -2.406470 -0.105537 -11.361747 7.854482 -0.855695 14.645377 -1.432808 -3.190414 -6.916938 -0.895992 27.831350 2.683889 -71.785691 -8.931854 56.246078 0.209653 -33.307546 17.151008 6.119864 -11.356323 9.218036 -5.493179 16.044098 0.133863 -0.000646 -0.012476 0.013155 0.002574 -0.004512 -0.004903 1.219340 -28.090047 -1.266650 76.948362 5.627932 52.408171 -1.809499 34.276813 14.622631 -6.856144 12.436050 8.012344 3.586945 -16.037432 -0.249735 -0.024937 -0.045907 0.030362 -0.003396 -0.000624 0.008752 
-42.530492 0.981734 -21.885218 0.324277 34.994267 4.181038 0.534344 21.141112 2.748214 -15.150601 -4.013991 -15.325631 -1.124072 0.431584 21.823618 21.988483 -10.500886 -2.173789 -6.030119 1.717874 -8.150671 -1.933242 -23.139264 0.316665 29.346386 10.826562 -10.055330 -6.105778 0.996602 23.499340 -32.440995 9.362438 -8.853678 3.272861 -0.863302 -7.969388 5.810737 0.091659 11.687390 -2.248906 -0.564486 17.297250 -2.739767 1.347127 -32.715040 -2.407428 -0.082086 -11.366637 7.870842 -0.837731 14.632126 -1.428420 -3.196426 -6.920329 -0.876026 27.816666 2.683250 -71.793490 -8.940240 56.245077 0.201775 -33.336179 17.142624 6.127498 -11.358240 9.218493 -5.493003 16.039473 0.133325 -0.000628 -0.012471 0.013141 0.002542 -0.004494 -0.004912 1.216410 -28.103956 -1.275784 76.947499 5.609940 52.422530 -1.793304 34.327114 14.628582 -6.864525 12.449194 8.016877 3.586202 -16.032076 -0.250419 -0.024923 -0.045930 0.030303 -0.003423 -0.000600 0.008716 
